<svg width="16" height="16" viewBox="0 0 16 16" fill="none" xmlns="http://www.w3.org/2000/svg">
<path d="M14 6.66536H2M10.6667 1.33203V3.9987M5.33333 1.33203V3.9987M5.2 14.6654H10.8C11.9201 14.6654 12.4801 14.6654 12.908 14.4474C13.2843 14.2556 13.5903 13.9497 13.782 13.5734C14 13.1455 14 12.5855 14 11.4654V5.86536C14 4.74526 14 4.1852 13.782 3.75738C13.5903 3.38106 13.2843 3.0751 12.908 2.88335C12.4801 2.66536 11.9201 2.66536 10.8 2.66536H5.2C4.07989 2.66536 3.51984 2.66536 3.09202 2.88335C2.71569 3.0751 2.40973 3.38106 2.21799 3.75738C2 4.1852 2 4.74526 2 5.86536V11.4654C2 12.5855 2 13.1455 2.21799 13.5734C2.40973 13.9497 2.71569 14.2556 3.09202 14.4474C3.51984 14.6654 4.07989 14.6654 5.2 14.6654Z" stroke="#B6B8BA" stroke-width="1.33333" stroke-linecap="round" stroke-linejoin="round"/>
</svg>
